PathFileType	4	(X/Y/Z)	 s09c0301.trc
DataRate	CameraRate	NumFrames	NumMarkers	Units	OrigDataRate	OrigDataStartFrame	OrigNumFrames
200	200	5	50	mm	200	1001	2000
Frame#	Time	racr			lacr			c7			jug			rlel			rdr			llel			ldr			s2			lic			ric			lasi			rasi			rpsi			lpsi			rgt			lgt			rth1			rth2			rth3			rth4			rlfc			rmfc			rsh1			rsh2			rsh3			rsh4			rlmal			rmmal			rcal			rtoe			rmt5			lth1			lth2			lth4			lth3			llfc			lmfc			llmal			lmmal			lcal			lmt5			lsh1			lsh2			lsh3			lsh4			ltoe			SBIKE			LBIKE			RBIKE			
		X1	Y1	Z1	X2	Y2	Z2	X3	Y3	Z3	X4	Y4	Z4	X5	Y5	Z5	X6	Y6	Z6	X7	Y7	Z7	X8	Y8	Z8	X9	Y9	Z9	X10	Y10	Z10	X11	Y11	Z11	X12	Y12	Z12	X13	Y13	Z13	X14	Y14	Z14	X15	Y15	Z15	X16	Y16	Z16	X17	Y17	Z17	X18	Y18	Z18	X19	Y19	Z19	X20	Y20	Z20	X21	Y21	Z21	X22	Y22	Z22	X23	Y23	Z23	X24	Y24	Z24	X25	Y25	Z25	X26	Y26	Z26	X27	Y27	Z27	X28	Y28	Z28	X29	Y29	Z29	X30	Y30	Z30	X31	Y31	Z31	X32	Y32	Z32	X33	Y33	Z33	X34	Y34	Z34	X35	Y35	Z35	X36	Y36	Z36	X37	Y37	Z37	X38	Y38	Z38	X39	Y39	Z39	X40	Y40	Z40	X41	Y41	Z41	X42	Y42	Z42	X43	Y43	Z43	X44	Y44	Z44	X45	Y45	Z45	X46	Y46	Z46	X47	Y47	Z47	X48	Y48	Z48	X49	Y49	Z49	X50	Y50	Z50	
1001	5.0050	707.065390	1362.719199	-97.965514	716.858585	1297.684119	-442.491308	705.440303	1391.382049	-274.870226	700.348442	1253.855124	-251.062405	633.244837	1110.506367	-37.043662	723.899576	871.556946	-59.897651	557.656288	1070.516149	-508.589813	706.876236	885.141107	-442.495448	228.573109	1187.102674	-220.539217	355.824053	1133.417975	-370.839540	377.231620	1181.338709	-83.476537	387.700310	1073.428186	-338.796995	399.075979	1117.426563	-100.485654	264.247685	1225.401346	-167.290692	260.373450	1207.356412	-276.864300	336.774534	1060.037859	-14.039346	283.735244	1008.661826	-382.660344	423.072650	951.481726	-18.501820	493.767386	900.794647	-31.374534	525.755085	818.210951	-34.110662	512.969713	916.454835	-59.015232	544.541276	716.303629	-65.519016	524.073691	708.340937	-164.337328	442.840161	681.917157	-41.992287	375.732289	625.905812	-63.332505	289.546855	610.950979	-66.891160	390.638398	605.981685	-93.601682	197.578286	570.207996	-73.297932	212.382762	579.007694	-149.195592	122.993051	607.324049	-113.719488	283.681259	397.960507	-128.883120	220.780138	449.299057	-60.447907	329.036496	879.993358	-385.710755	378.336849	810.933416	-381.289162	413.603997	822.344683	-372.268301	386.492824	720.947613	-375.649901	408.301245	628.252038	-361.489862	407.857329	608.054137	-267.242712	298.923696	278.948965	-403.184242	318.014234	279.588287	-331.494331	229.524850	249.274341	-371.835831	389.692667	180.822261	-432.645199	371.396606	536.242500	-394.435207	371.549180	449.793129	-393.748558	327.694639	372.875079	-400.651539	395.386520	442.962313	-362.036399	482.404652	184.189917	-362.934378	-64.862773	853.240711	-238.665667	20.621481	84.754822	-441.925874	21.145389	83.949375	-43.691101	
1002	5.0100	705.108303	1363.347008	-96.738621	719.557365	1298.309186	-441.233069	705.529076	1392.225891	-273.356475	700.885091	1254.648226	-249.743241	630.074583	1110.618178	-37.462709	723.958463	872.278432	-60.472513	561.744314	1071.299461	-510.023713	707.578365	884.530233	-443.137535	228.250642	1186.404069	-226.029473	358.950236	1130.612548	-373.036191	375.965398	1183.562027	-86.338209	390.143783	1071.229447	-339.420608	398.382916	1119.601022	-102.158550	262.511823	1225.651723	-172.845447	261.265000	1205.726878	-281.895425	336.068255	1063.890190	-16.684205	285.359807	1006.351617	-383.488155	425.033175	957.358326	-20.110340	496.842945	908.074614	-32.350010	530.241434	825.803552	-34.474055	515.423441	923.418154	-60.309523	551.473227	723.581223	-65.588177	531.068141	715.016533	-165.106908	449.901981	688.771796	-42.166343	382.844625	632.755871	-63.474782	296.590948	617.808596	-66.952191	397.683839	612.868511	-93.775353	204.591981	576.375317	-73.394277	218.982951	584.648159	-148.941779	129.392796	612.774779	-113.686515	293.910172	406.279854	-128.960547	229.638769	456.067959	-60.505583	326.939302	877.774338	-386.468009	374.146558	807.167298	-382.274249	409.746372	817.803014	-372.603954	379.877671	716.993003	-376.883592	399.256735	624.057302	-362.056919	398.005210	603.747643	-267.630460	292.083204	274.412518	-403.013998	311.715086	274.949539	-331.875153	222.932722	246.656761	-371.718104	381.482402	174.510745	-432.450239	362.474028	532.337224	-394.934082	363.377407	445.744733	-394.268191	320.168411	368.521410	-400.993442	387.368936	439.201962	-362.638235	474.205086	175.699479	-362.780805	-64.924209	853.281501	-238.764099	20.611068	84.749814	-441.934116	21.123949	83.986251	-43.710860	
1003	5.0150	702.736815	1363.714162	-95.727561	722.219863	1299.370095	-439.813842	705.293030	1393.352018	-271.665563	701.326612	1255.678530	-248.482955	626.593319	1110.600465	-37.914440	723.897325	873.191614	-60.978556	566.065383	1072.113653	-510.615709	708.238641	883.986162	-443.526552	228.500974	1185.474020	-231.705010	362.060547	1127.600644	-375.013195	374.706381	1186.039564	-89.291653	392.411443	1069.116468	-340.003074	397.671555	1121.798767	-103.689883	262.174142	1225.442714	-178.720778	262.987299	1203.673718	-287.260986	335.317861	1067.726789	-19.264318	287.251782	1004.126882	-384.860461	426.776279	963.104905	-21.882278	499.370390	914.955090	-33.730692	534.528507	833.468831	-35.033849	517.843719	930.646355	-61.544818	558.099880	730.720440	-65.161374	538.362627	722.711046	-164.606114	456.828611	695.906194	-42.296817	389.975295	639.655698	-63.558167	303.817254	624.414027	-67.076360	404.904205	619.685454	-93.780851	211.836614	582.037571	-73.557470	226.132463	590.596977	-149.027517	136.147687	617.737493	-113.789658	304.049242	413.940925	-128.976470	238.826036	462.416206	-60.682908	324.921969	875.693551	-387.560335	370.110988	803.704470	-383.355999	405.859139	813.426226	-373.154971	373.464514	713.365828	-378.432479	390.213237	620.338705	-363.035096	388.586075	599.854575	-268.278759	285.125758	270.535970	-402.799418	305.318364	270.931137	-332.220602	216.109334	244.809598	-371.520219	372.871339	168.784701	-432.291231	353.334543	529.019497	-395.684456	355.041340	442.558717	-395.105013	312.398945	364.798127	-401.392748	379.219722	436.149344	-363.590167	465.588499	167.613390	-362.609628	-65.034165	853.303129	-238.775639	20.601983	84.751273	-441.937811	21.114112	84.000433	-43.725282	
1004	5.0200	700.701107	1364.510297	-93.815471	724.866053	1300.802600	-438.235665	705.241799	1394.622316	-269.647135	701.861252	1256.842907	-246.998302	622.828572	1110.504527	-38.338781	723.312734	873.971533	-61.777592	570.180477	1073.052820	-510.733285	709.677915	881.201343	-442.445661	228.835746	1184.473774	-237.635497	365.217950	1124.570282	-376.695155	373.448900	1188.631180	-92.331080	396.426146	1066.492908	-339.092239	397.315778	1124.161359	-105.062100	261.725843	1225.381633	-184.614834	264.728833	1201.774139	-292.630454	334.380279	1071.626923	-21.960041	289.242556	1002.246075	-388.385999	428.313859	968.954340	-23.656771	501.721089	921.886284	-35.188544	538.630299	841.201114	-35.489664	520.220487	938.125393	-62.924943	564.352238	738.988940	-64.851116	545.345667	730.092893	-164.890915	463.733095	703.176876	-42.482650	397.159068	646.566322	-63.664120	311.129662	630.782954	-67.161259	412.359124	626.440180	-93.622481	219.336550	587.084655	-73.835907	233.507756	596.030055	-149.149411	143.070906	621.756978	-113.860239	314.256754	420.818316	-129.176620	248.711040	468.494023	-60.532124	322.955078	873.718396	-388.972734	366.324696	800.668308	-384.765213	401.715899	809.211120	-373.434131	367.168459	710.081548	-380.086362	381.138831	617.244348	-364.394249	379.644237	596.420035	-269.207131	278.038880	267.270549	-402.882666	298.769025	267.579531	-332.861506	209.159441	243.659550	-371.638417	363.901705	163.596670	-432.182878	344.074045	526.356911	-396.588085	346.551673	439.984407	-396.073476	304.537624	361.770846	-401.885896	371.117106	433.742709	-364.817970	456.585329	160.200229	-362.557642	-64.904841	853.174169	-238.912334	20.592424	84.735602	-441.963708	21.109326	84.003545	-43.735653	
1005	5.0250	698.748793	1365.195781	-91.509202	727.515535	1302.564967	-436.507293	705.208494	1395.889733	-267.382245	702.463478	1257.978800	-245.449844	618.927481	1110.264889	-38.760121	723.057357	875.443354	-62.586736	573.952251	1074.170624	-510.563842	709.969703	879.430007	-440.403693	229.341294	1183.392455	-243.481012	368.439658	1121.508301	-378.311113	372.274903	1191.095964	-95.493174	398.433742	1064.882579	-339.658016	396.727166	1126.413335	-106.296463	261.444163	1225.052648	-190.530143	266.534469	1199.869448	-298.074702	333.504543	1075.423263	-24.530109	291.535683	999.781857	-390.185686	429.603488	974.590054	-25.435085	503.954806	928.835942	-36.531220	542.588065	849.056317	-36.022044	522.291463	945.230267	-64.218679	570.681419	746.853187	-64.587739	552.180212	737.392760	-165.254712	470.498126	710.679616	-42.775228	404.409910	653.259681	-63.653694	318.516414	636.780443	-67.290896	419.962467	633.062125	-93.351506	227.112653	591.502964	-74.015324	241.237909	600.664099	-149.291888	150.210448	625.147293	-113.930903	324.801481	426.988657	-129.375922	258.263905	473.664029	-60.795566	321.296591	872.230602	-390.645142	362.746722	798.110256	-386.231901	397.932627	805.449580	-374.553007	360.901111	707.332605	-381.935755	372.250616	614.568545	-366.061494	371.162597	593.648688	-270.332662	270.996643	264.722388	-403.014913	292.267457	265.011648	-333.556328	202.079888	243.085183	-371.505591	354.723097	159.116410	-432.048065	334.869782	524.201194	-397.690910	338.017874	437.866436	-397.226289	296.521762	359.342434	-402.443781	363.073123	431.834624	-366.370472	447.228856	153.356495	-362.359437	-64.944481	853.141975	-238.856096	20.584416	84.730502	-441.977701	21.091810	84.013800	-43.733558	
